<?xml version="1.0" encoding="UTF-8"?>
<svg width="200" height="200" viewBox="0 0 200 200" xmlns="http://www.w3.org/2000/svg">
  <!-- Fundo azul -->
  <rect width="200" height="200" fill="#003399" rx="20"/>
  
  <!-- Texto EU NA -->
  <text x="100" y="70" font-family="Montserrat" font-size="36" font-weight="bold" fill="white" text-anchor="middle">EU NA</text>
  
  <!-- Texto EUROPA -->
  <text x="100" y="120" font-family="Montserrat" font-size="36" font-weight="bold" fill="#FFD700" text-anchor="middle">EUROPA</text>
  
  <!-- Estrelas em círculo -->
  <g fill="#FFD700">
    <circle cx="100" cy="30" r="4"/>
    <circle cx="130" cy="40" r="4"/>
    <circle cx="150" cy="70" r="4"/>
    <circle cx="160" cy="100" r="4"/>
    <circle cx="150" cy="130" r="4"/>
    <circle cx="130" cy="160" r="4"/>
    <circle cx="100" cy="170" r="4"/>
    <circle cx="70" cy="160" r="4"/>
    <circle cx="50" cy="130" r="4"/>
    <circle cx="40" cy="100" r="4"/>
    <circle cx="50" cy="70" r="4"/>
    <circle cx="70" cy="40" r="4"/>
  </g>
  
  <!-- Linha decorativa -->
  <path d="M 40,140 C 60,150 140,150 160,140" stroke="#FFD700" stroke-width="2" fill="none"/>
  
  <!-- Bandeiras estilizadas -->
  <g transform="translate(20,160) scale(0.15)">
    <rect width="60" height="40" fill="#009246"/>
    <rect x="20" width="60" height="40" fill="#fff"/>
    <rect x="40" width="60" height="40" fill="#ce2b37"/>
  </g>
  <g transform="translate(160,160) scale(0.15)">
    <rect width="100" height="40" fill="#0055A4"/>
    <rect x="33" width="34" height="40" fill="#fff"/>
    <rect x="67" width="33" height="40" fill="#EF4135"/>
  </g>
</svg>